<svg width="300" height="301" viewBox="0 0 300 301" fill="none" xmlns="http://www.w3.org/2000/svg">
<g clip-path="url(#clip0_63_10)">
<path d="M292.8 157.114C289.2 232.714 226.5 293.114 150 293.114C73.4999 293.114 10.8 232.714 7.19996 157.114L292.8 157.114Z" fill="white"/>
<path d="M285.3 164.114C282.1 195.114 268.5 223.914 246.2 246.314C220.5 272.014 186.3 286.114 150 286.114C113.7 286.114 79.5 272.014 53.8 246.314C31.4 223.914 17.8 195.214 14.7 164.114H285.3ZM300 150.114H0C0 232.914 67.2 300.114 150 300.114C232.8 300.114 300 232.914 300 150.114Z" fill="black"/>
<path d="M7.19995 143.114C10.8 67.5136 73.5 7.11365 150 7.11365C226.5 7.11365 289.2 67.5136 292.8 143.114H7.19995Z" fill="#CB2027"/>
<path opacity="0.19" d="M191.2 19.9136C221 50.8136 239.8 95.8136 239.8 145.914C239.8 202.714 215.6 253.014 178.6 283.614C240.2 270.514 286.5 215.714 286.5 150.114C286.5 89.1136 246.4 37.4136 191.2 19.9136Z" fill="black"/>
<path d="M150 14.1136C186.3 14.1136 220.5 28.2136 246.2 53.9136C268.6 76.3136 282.2 105.014 285.3 136.114H14.7C17.9 105.114 31.5 76.3136 53.8 53.9136C79.5 28.2136 113.7 14.1136 150 14.1136ZM150 0.113647C67.2 0.113647 0 67.3136 0 150.114H300C300 67.3136 232.8 0.113647 150 0.113647Z" fill="black"/>
<path d="M150 195.014C125.2 195.014 105.1 174.914 105.1 150.114C105.1 125.314 125.2 105.214 150 105.214C174.8 105.214 194.9 125.314 194.9 150.114C194.9 174.914 174.8 195.014 150 195.014Z" fill="white"/>
<path d="M150 111.714C171.2 111.714 188.4 128.914 188.4 150.114C188.4 171.314 171.2 188.514 150 188.514C128.8 188.514 111.6 171.314 111.6 150.114C111.6 128.914 128.8 111.714 150 111.714ZM150 98.7136C121.6 98.7136 98.6 121.714 98.6 150.114C98.6 178.514 121.6 201.514 150 201.514C178.4 201.514 201.4 178.514 201.4 150.114C201.4 121.714 178.4 98.7136 150 98.7136Z" fill="black"/>
</g>
<defs>
<clipPath id="clip0_63_10">
<rect width="300" height="300" fill="white" transform="translate(0 0.113647)"/>
</clipPath>
</defs>
</svg>
